<svg version="1.1" id="Layer_1" xmlns="http://www.w3.org/2000/svg" xmlns:xlink="http://www.w3.org/1999/xlink" x="0px" y="0px"
	 width="100%" viewBox="0 0 752 752" enable-background="new 0 0 752 752" xml:space="preserve">
	<path fill="#000000" opacity="1.000000" stroke="none"
	d="
M253.686478,450.023102 
	C258.058136,424.944000 272.929688,408.429596 295.369171,403.253723 
	C311.941437,399.431213 326.339600,404.302460 339.114136,414.636566 
	C342.752136,417.579590 344.933960,417.441254 347.499146,413.799286 
	C349.026764,411.630402 350.829926,409.637695 352.649811,407.697693 
	C354.453583,405.774841 356.834625,405.626587 359.125641,406.489166 
	C361.283356,407.301514 360.987640,409.446198 360.966125,411.237701 
	C360.601929,441.536987 361.745697,471.853180 360.332489,502.135895 
	C359.243378,525.473999 340.978271,545.876709 318.048859,550.348083 
	C311.089996,551.705139 304.122742,551.201782 297.145996,551.317444 
	C294.353302,551.363770 293.205811,549.900818 293.208069,547.336975 
	C293.213745,540.845764 293.287201,534.354675 293.315613,527.863403 
	C293.329742,524.638916 295.020691,523.593262 298.093079,523.699829 
	C302.416016,523.849731 306.758820,523.867554 311.076538,523.634216 
	C320.199890,523.141113 327.480164,517.394287 330.459503,508.163940 
	C322.868988,511.578979 315.294617,513.368408 307.280121,513.357239 
	C277.655579,513.316040 256.065948,493.402832 253.513138,463.889282 
	C253.121323,459.359497 253.313995,454.935211 253.686478,450.023102 
M288.527252,477.965515 
	C292.984924,482.617920 298.438049,485.267181 304.853149,485.641083 
	C322.014313,486.641327 335.324921,470.827240 332.642914,452.735626 
	C331.053253,442.012421 321.396393,431.925812 311.172791,430.310028 
	C299.595551,428.480255 288.769653,433.260803 284.363129,443.200012 
	C279.086914,455.100708 279.453796,466.825836 288.527252,477.965515 
z"/>
<path fill="#000000" opacity="1.000000" stroke="none" 
	d="
M156.844650,405.548279 
	C156.844650,393.451202 156.949646,381.789001 156.784668,370.130646 
	C156.728363,366.151489 157.928558,364.356415 162.186539,364.561951 
	C168.003540,364.842743 173.846390,364.746948 179.673141,364.605347 
	C182.995895,364.524597 184.417297,365.594177 184.410507,369.173889 
	C184.323563,414.983582 184.360977,460.793518 184.323074,506.603363 
	C184.321671,508.304993 184.921570,510.612427 182.383301,511.124451 
	C180.091309,511.586761 177.751633,511.688263 176.096527,509.333679 
	C173.427658,505.536957 170.646225,501.819397 167.475525,497.469086 
	C151.757980,510.577911 134.627884,517.515564 114.312675,510.777252 
	C102.347343,506.808502 92.791374,499.640137 85.958626,489.001587 
	C71.440712,466.397308 74.975357,434.987396 93.749756,416.824066 
	C109.633026,401.457764 138.005463,395.904633 156.050110,410.599182 
	C157.372452,409.220032 156.611160,407.494141 156.844650,405.548279 
M111.326744,476.144867 
	C115.960686,481.870544 121.898003,485.304626 129.288422,485.630371 
	C140.512863,486.125122 148.420670,480.469727 153.467560,470.993988 
	C159.182190,460.264587 157.918564,449.697418 150.585251,440.101898 
	C143.988617,431.470245 134.980789,428.266418 124.461388,430.653015 
	C114.007492,433.024811 107.769348,440.115906 105.700966,450.469238 
	C103.910934,459.429260 105.087090,468.047394 111.326744,476.144867 
z"/>
<path fill="#000000" opacity="1.000000" stroke="none" 
	d="
M177.476746,276.586182 
	C194.881104,302.360260 190.874557,335.977539 168.427353,354.573853 
	C137.390961,380.285858 88.543274,362.157166 81.683258,322.394592 
	C80.973854,318.282593 80.628517,314.168152 80.635452,309.988495 
	C80.682938,281.347992 80.761604,252.706665 80.557671,224.067535 
	C80.522812,219.173111 81.681854,217.112350 86.919373,217.543045 
	C92.377708,217.991913 97.907227,217.806824 103.394028,217.596481 
	C107.044548,217.456512 108.388550,218.756760 108.343079,222.470795 
	C108.188164,235.123947 108.289482,247.780273 108.307953,260.435394 
	C108.309380,261.411346 108.427307,262.387115 108.546371,264.208923 
	C119.904106,255.487411 132.230270,253.268250 145.543350,256.109741 
	C158.619308,258.900635 169.184341,265.649597 177.476746,276.586182 
M156.434982,325.850159 
	C157.314453,323.875275 158.366150,321.957764 159.046112,319.916382 
	C164.422806,303.774323 154.681351,285.767670 139.327896,283.359741 
	C126.004211,281.270172 113.947220,289.042542 109.788979,302.401611 
	C105.626648,315.773834 111.346443,329.986389 123.330612,336.049927 
	C135.037308,341.973114 147.602524,338.294586 156.434982,325.850159 
z"/>
<path fill="#000000" opacity="1.000000" stroke="none" 
	d="
M551.977783,508.266754 
	C531.483337,497.660339 520.714722,477.266510 522.364624,454.532623 
	C523.534363,438.414673 529.083862,424.646179 541.551697,414.274323 
	C561.366272,397.790863 587.323181,397.926361 607.700989,414.182526 
	C612.726990,418.191956 612.715698,418.182526 616.918762,413.147491 
	C618.519470,411.229858 620.088440,409.269684 621.849976,407.506897 
	C623.541443,405.814270 625.772095,405.695160 627.923157,406.402863 
	C630.172363,407.142883 629.955017,409.259399 629.956360,411.043884 
	C629.979736,442.873016 629.976440,474.702179 629.932983,506.531311 
	C629.930603,508.279694 630.252075,510.541504 627.902039,511.100006 
	C625.439026,511.685364 622.978210,511.696106 621.208069,509.162811 
	C618.553040,505.363068 615.731445,501.679718 612.567749,497.386444 
	C594.539978,513.067566 574.692871,518.145081 551.977783,508.266754 
M601.621643,462.816345 
	C602.156555,457.294983 602.031799,451.894379 599.794678,446.637085 
	C595.111328,435.631317 584.627014,429.150146 572.785950,430.156982 
	C561.412231,431.124054 553.418823,438.555176 550.762024,450.640320 
	C549.965637,454.262817 550.068726,457.954498 550.383240,461.584442 
	C551.230469,471.363831 555.377441,479.284027 564.694092,483.368134 
	C574.549561,487.688416 583.884399,486.442871 592.163818,479.274689 
	C596.981323,475.103760 599.939941,469.794006 601.621643,462.816345 
z"/>
<path fill="#000000" opacity="1.000000" stroke="none" 
	d="
M509.305878,411.250214 
	C509.302979,417.553467 509.154449,423.388824 509.339752,429.213531 
	C509.444519,432.506287 508.232117,433.531281 504.984711,433.477142 
	C494.658447,433.304962 484.325897,433.511108 473.999542,433.342102 
	C470.406281,433.283295 468.849915,434.415649 468.923157,438.174927 
	C469.095154,447.001160 468.782745,455.839569 469.065002,464.660248 
	C469.427338,475.982910 477.162659,483.473694 488.541199,483.831238 
	C493.867493,483.998627 499.203430,483.971436 504.532776,483.889618 
	C507.857361,483.838623 509.414093,485.129120 509.333557,488.608276 
	C509.190979,494.769165 509.294098,500.935547 509.276031,507.099579 
	C509.269989,509.163025 509.256622,511.350433 506.337982,511.291107 
	C496.867432,511.098572 487.315094,512.379578 477.949158,510.190247 
	C456.623810,505.205353 441.719421,486.421906 441.635681,464.590546 
	C441.602448,455.927582 441.463409,447.260223 441.690979,438.603210 
	C441.793701,434.695770 440.490753,433.262787 436.548584,433.349609 
	C427.995026,433.537964 428.678436,434.036682 428.648041,425.101776 
	C428.631622,420.270508 428.791809,415.434326 428.618500,410.609467 
	C428.502808,407.387787 429.834381,405.979218 432.964661,406.038086 
	C434.129913,406.060028 435.306366,405.903687 436.460693,406.011169 
	C440.277985,406.366669 441.796539,404.875641 441.708618,400.875153 
	C441.485321,390.717529 441.790619,380.548065 441.550934,370.391205 
	C441.452026,366.199768 442.496429,364.275696 447.092316,364.565216 
	C452.734436,364.920654 458.421509,364.816010 464.077759,364.604858 
	C467.858032,364.463745 469.031525,366.102448 468.991364,369.645630 
	C468.881866,379.306885 468.967163,388.970428 468.988495,398.633087 
	C469.004639,405.944580 469.013672,405.956390 476.552673,405.978058 
	C485.715485,406.004395 494.878448,406.040497 504.041107,406.004608 
	C507.336700,405.991699 509.666046,406.849518 509.305878,411.250214 
z"/>
<path fill="#000000" opacity="1.000000" stroke="none" 
	d="
M659.137085,511.370056 
	C655.017151,511.753387 653.647583,510.161743 653.653259,506.485962 
	C653.724304,460.677979 653.714050,414.869843 653.656494,369.061859 
	C653.652527,365.900421 654.750122,364.534302 658.005493,364.604248 
	C664.498901,364.743896 670.997864,364.712555 677.493164,364.635468 
	C680.243286,364.602814 681.505432,365.743927 681.333435,368.495667 
	C681.281616,369.324738 681.346924,370.160675 681.346924,370.993469 
	C681.347900,415.635559 681.280518,460.277893 681.443787,504.919373 
	C681.461609,509.786377 680.375061,511.928711 675.105103,511.469482 
	C669.980164,511.022888 664.785828,511.372314 659.137085,511.370056 
z"/>
<path fill="#000000" opacity="1.000000" stroke="none" 
	d="
M207.676514,429.000000 
	C207.684921,422.341461 207.763458,416.181854 207.672119,410.024811 
	C207.627945,407.046875 208.895294,405.812073 211.838882,405.845581 
	C218.329407,405.919556 224.821747,405.905762 231.312622,405.848328 
	C234.306717,405.821838 235.368927,407.234131 235.364532,410.142517 
	C235.315598,442.433411 235.306747,474.724518 235.375931,507.015350 
	C235.382782,510.210388 234.264679,511.490295 231.020294,511.405151 
	C225.032333,511.248077 219.029190,511.172699 213.047913,511.427856 
	C208.865738,511.606293 207.610428,509.945221 207.629944,505.899597 
	C207.752899,480.433563 207.682953,454.966644 207.676514,429.000000 
z"/>
<path fill="#000000" opacity="1.000000" stroke="none" 
	d="
M384.683777,462.999939 
	C384.685669,445.529205 384.799561,428.557281 384.612183,411.588654 
	C384.564789,407.299927 385.837982,405.559509 390.285675,405.791290 
	C396.093414,406.093994 401.928833,405.921051 407.751373,405.861267 
	C410.721985,405.830780 412.370117,406.734131 412.362183,410.128296 
	C412.286804,442.405640 412.285767,474.683228 412.338623,506.960632 
	C412.343811,510.129974 411.195435,511.454590 407.956726,511.382477 
	C401.804047,511.245483 395.641388,511.221252 389.491425,511.417816 
	C385.778534,511.536499 384.603271,510.047699 384.639038,506.425262 
	C384.780304,492.118073 384.689087,477.808563 384.683777,462.999939 
z"/>
<path fill="#000000" opacity="1.000000" stroke="none" 
	d="
M229.867920,394.220520 
	C220.464508,397.613281 213.155853,396.050262 207.798157,389.737823 
	C202.847687,383.905121 202.054398,375.997040 205.740784,369.228455 
	C209.148926,362.970734 216.361954,359.070038 223.163391,359.806580 
	C230.561325,360.607666 237.080643,365.762543 239.091888,372.401306 
	C241.341782,379.827820 239.073715,387.373535 233.121384,392.122162 
	C232.215469,392.844879 231.189255,393.416779 229.867920,394.220520 
z"/>
<path fill="#000000" opacity="1.000000" stroke="none" 
	d="
M390.895935,361.552063 
	C399.275513,358.061737 406.353149,359.845428 412.226379,365.869629 
	C417.381073,371.156860 418.330811,379.231842 415.175323,385.810120 
	C411.989319,392.452026 404.291473,396.918091 397.292450,396.185211 
	C389.296844,395.348022 382.519287,389.587585 380.895172,382.248718 
	C379.044098,373.884308 382.478973,366.569122 390.895935,361.552063 
z"/>
</svg>